<svg display="none" xmlns="http://www.w3.org/2000/svg">
  <symbol id="icon_box" viewBox="0 0 37 32">
    <path
      d="M32.8173 10.9772L36.8133 5.54962C37.0039 5.29082 37.0516 4.96477 36.9423 4.66872C36.833 4.37267 36.5795 4.14089 36.2571 4.04249L23.177 0.0508263C22.7136 -0.0905453 22.2048 0.0705851 21.9341 0.444538L18.5 5.18657L15.066 0.444471C14.7952 0.0705186 14.2864 -0.0906119 13.823 0.0507597L0.742929 4.04243C0.420553 4.14082 0.166901 4.37261 0.0576353 4.66865C-0.0516301 4.9647 -0.00386262 5.29076 0.186702 5.54962L4.18269 10.9772L0.186774 16.4048C-0.00379038 16.6637 -0.0515579 16.9897 0.0577076 17.2858C0.166973 17.5818 0.420625 17.8136 0.743001 17.912L4.40824 19.0305V27.0104C4.40824 27.44 4.70676 27.8213 5.14939 27.9571L11.651 29.9522L18.1526 31.9473C18.3704 32.0152 18.613 32.0198 18.8463 31.9477L31.8506 27.9571C32.2932 27.8213 32.5918 27.4399 32.5918 27.0104V19.0305L36.2571 17.9119C36.5795 17.8136 36.8331 17.5818 36.9423 17.2857C37.0516 16.9897 37.0039 16.6636 36.8133 16.4048L32.8173 10.9772ZM23.2794 2.18477L34.2147 5.52194L31.0713 9.79143L20.1891 6.45207L23.2794 2.18477ZM2.7853 5.52187L13.7206 2.18471L16.8108 6.452L5.9287 9.79136L2.7853 5.52187ZM2.78537 16.4325L5.9287 12.163L16.8109 15.5024L13.7207 19.7697C11.8763 19.2068 4.03455 16.8138 2.78537 16.4325ZM17.416 29.6175L11.9961 27.9543L6.5762 26.2911V19.6921L13.823 21.9036C14.2835 22.0441 14.7935 21.8863 15.066 21.5099L17.416 18.2648V29.6175ZM18.5 13.917L8.92006 10.9772L18.5 8.03742L28.08 10.9772L18.5 13.917ZM30.4238 26.2911L19.584 29.6175V18.2647L21.9341 21.5099C22.2067 21.8865 22.7168 22.0441 23.177 21.9036L30.4238 19.6921V26.2911ZM23.2794 19.7697L20.1891 15.5024L31.0713 12.1631L34.2147 16.4326C34.0283 16.4894 23.6019 19.6705 23.2794 19.7697Z"
    />
  </symbol>
  <symbol id="icon_meter" viewBox="0 0 37 32">
    <g>
      <path
        d="M0 32H26.2652V25.2916H37V0H0V32ZM2.45213 2.35845H34.5479V22.9332H23.8131V29.6415H2.45213V2.35845Z"
      />
      <path
        d="M18.3211 11L15.1078 16.3038L11.808 11H9V20.9536H12.112V16.5739L14.312 20.0576H15.8171L18.0171 16.4175L18.0458 20.9536H21.1578L21.1287 11H18.3211Z"
      />
      <path
        d="M26.459 12.0087C27.3996 11.1982 27.6166 10.7005 27.6166 10.1318C27.6166 8.97994 26.546 8.25491 24.9539 8.25491C23.4631 8.25491 22.5221 8.85177 22.1024 9.66225L23.7815 10.4445C23.9693 10.1032 24.3024 9.90408 24.7512 9.90408C25.1565 9.90408 25.3301 10.075 25.3301 10.3023C25.3301 10.4873 25.2431 10.7146 24.8091 11.07L22.5077 13.0042V14.2979H27.8049V12.6773H25.6627L26.459 12.0087Z"
      />
    </g>
  </symbol>
</svg>